<svg id="Layer_1" data-name="Layer 1" xmlns="http://www.w3.org/2000/svg" viewBox="0 0 714.02 697.27"><defs><style>.cls-1{fill:#7ed7fe;}.cls-1,.cls-2{stroke:#000;stroke-miterlimit:10;stroke-width:20px;}.cls-2{fill:#670f87;}</style></defs><path class="cls-1" d="M835.33,171.91S733.27,184.5,695.25,244.75s.22,75.65-43.88,132.35-165.6,143.1-202.5,184.5-93.52,161.2-97.2,159.3,18.14-39.08,31.5-88.2c15.11-55.48,4.89-76.9,9-131.4,6.77-89.72,47.08-199.57,113.4-266.4,12.64-12.73,27.65-25.34,44.1-50.4,33.25-50.62,21.86-75.09,46.8-103.5,41.14-46.86,121.23-36.71,127.8-35.1,102.6,25.2,85.5,54.9,114.3,62.1,0,0,204.43,19,204.43,45S835.33,171.91,835.33,171.91Z" transform="translate(-338.98 -33.87)"/><path class="cls-2" d="M815.52,261.17c2.84,28.33-7.47,65.63-16.55,85.33-71.05,154.13-190.8,207.9-190.8,207.9-61.13,27.45-69.68,9.21-123.3,39.6-86.59,49.1-126.32,132.2-133.2,126.9,0,0,60.3-117.9,97.2-159.3s158.4-127.8,202.5-184.5,5.84-72.1,43.88-132.35,140.08-72.84,140.08-72.84c-18,5.08-47,20.55-33.66,45.89C810.06,233.69,814.19,247.85,815.52,261.17Z" transform="translate(-338.98 -33.87)"/></svg>