<?xml version="1.0" standalone="no"?>
<!DOCTYPE svg PUBLIC "-//W3C//DTD SVG 20010904//EN"
 "http://www.w3.org/TR/2001/REC-SVG-20010904/DTD/svg10.dtd">
<svg version="1.0" xmlns="http://www.w3.org/2000/svg"
 width="715.000000pt" height="715.000000pt" viewBox="0 0 715.000000 715.000000"
 preserveAspectRatio="xMidYMid meet">
<metadata>
Created by potrace 1.11, written by Peter Selinger 2001-2013
</metadata>
<g transform="translate(0.000000,715.000000) scale(0.100000,-0.100000)"
fill="#000000" stroke="none">
<path d="M3420 7057 c-3 -3 -41 -8 -85 -12 -44 -4 -83 -9 -87 -11 -4 -2 -26
-7 -50 -10 -88 -13 -309 -87 -368 -124 -8 -5 -28 -16 -45 -24 -54 -25 -155
-102 -227 -172 -133 -130 -189 -236 -268 -504 -82 -278 -148 -428 -267 -604
-50 -73 -109 -153 -123 -166 -3 -3 -20 -23 -39 -45 -19 -22 -118 -126 -220
-230 -102 -105 -225 -242 -274 -305 -48 -63 -91 -120 -95 -125 -28 -34 -132
-196 -132 -204 0 -5 -4 -11 -8 -13 -16 -6 -174 -299 -247 -456 -133 -288 -261
-648 -311 -872 -2 -11 -6 -30 -9 -41 -2 -12 -9 -36 -14 -53 -6 -17 -13 -44
-15 -61 -3 -16 -14 -73 -25 -125 -10 -52 -22 -115 -25 -140 -3 -25 -8 -54 -10
-65 -3 -18 -13 -94 -33 -260 -4 -33 -7 -256 -8 -495 -2 -506 -11 -593 -86
-860 -56 -198 -106 -335 -227 -620 -36 -85 -73 -182 -83 -215 -9 -33 -20 -68
-24 -77 -4 -10 -3 -18 3 -18 5 0 26 -14 47 -30 39 -31 82 -38 127 -21 26 10
80 61 119 112 15 19 76 98 135 175 336 437 650 732 1007 948 168 101 374 191
482 210 17 3 55 10 85 16 30 6 73 13 95 16 64 9 265 54 330 74 120 38 282 103
355 143 19 10 53 28 75 40 133 70 457 300 600 425 55 49 206 185 219 198 6 6
52 54 101 105 78 82 118 126 225 249 52 60 205 263 267 355 198 292 382 629
461 845 39 108 88 281 96 344 4 28 9 52 11 56 10 16 20 160 19 290 0 194 -30
319 -119 508 -25 52 -47 107 -50 121 -12 68 58 150 182 211 l68 34 605 3 c333
1 628 4 655 6 28 3 97 8 155 11 105 7 152 11 245 21 76 9 118 15 145 20 158
31 155 30 206 48 76 28 123 57 151 94 23 30 28 46 28 94 0 49 -4 63 -31 96
-42 52 -93 84 -199 126 -75 30 -232 77 -303 92 -9 2 -60 13 -112 24 -52 11
-111 23 -130 26 -19 3 -73 13 -120 21 -122 23 -115 22 -225 38 -218 33 -396
57 -515 71 -110 12 -147 17 -170 20 -14 2 -52 7 -85 10 -33 3 -78 8 -100 11
-22 2 -61 7 -87 9 -26 3 -59 10 -74 16 -15 5 -84 68 -153 138 -149 152 -243
217 -456 311 -73 33 -331 117 -449 146 -87 22 -129 26 -306 30 -113 3 -208 3
-210 1z"/>
</g>
</svg>
