<?xml version="1.0" standalone="no"?>
<!DOCTYPE svg PUBLIC "-//W3C//DTD SVG 20010904//EN"
 "http://www.w3.org/TR/2001/REC-SVG-20010904/DTD/svg10.dtd">
<svg version="1.0" xmlns="http://www.w3.org/2000/svg"
 width="981.000000pt" height="981.000000pt" viewBox="0 0 981.000000 981.000000"
 preserveAspectRatio="xMidYMid meet">
<metadata>
Created by potrace 1.11, written by Peter Selinger 2001-2013
</metadata>
<g transform="translate(0.000000,981.000000) scale(0.100000,-0.100000)"
fill="#000000" stroke="none">
<path d="M1837 9618 c-110 -314 -160 -517 -203 -828 -23 -158 -26 -678 -6
-840 28 -228 100 -574 141 -683 9 -22 3 -36 -41 -103 -64 -98 -158 -293 -197
-412 -133 -401 -114 -862 50 -1248 74 -174 150 -296 303 -488 l29 -37 -30 -32
c-42 -44 -65 -92 -106 -227 -120 -387 -168 -702 -168 -1100 0 -306 24 -527 87
-810 166 -741 613 -1476 1181 -1943 l72 -59 3 -281 c3 -264 4 -285 25 -329 32
-70 94 -131 164 -163 56 -25 70 -27 148 -23 128 7 209 55 266 160 25 46 30 66
33 150 l4 96 67 -30 c401 -182 1051 -360 1261 -345 259 19 827 179 1186 335
l92 39 4 -86 c6 -113 33 -175 104 -240 158 -145 408 -99 504 91 l30 61 0 277
0 277 63 54 c213 183 371 348 530 551 398 512 645 1111 734 1783 21 165 25
657 5 815 -35 281 -84 505 -162 743 -39 119 -58 163 -86 195 -40 47 -44 34 48
147 322 396 455 959 348 1474 -40 197 -145 450 -253 613 l-44 66 34 124 c42
152 87 372 110 543 22 164 25 674 5 835 -41 330 -85 516 -204 863 -60 174 -74
207 -91 207 -39 0 -408 -71 -520 -100 -411 -105 -792 -276 -1144 -512 l-102
-68 -1212 0 -1211 0 -76 54 c-322 225 -738 414 -1145 521 -129 34 -496 105
-540 105 -20 0 -30 -20 -90 -192z m645 -592 c339 -112 659 -285 938 -506 214
-169 480 -456 631 -681 l59 -89 -101 51 c-215 107 -455 167 -710 176 -325 12
-622 -54 -902 -199 -43 -22 -79 -39 -81 -37 -6 7 -34 178 -47 284 -16 130 -16
512 0 640 21 170 66 405 77 405 2 0 64 -20 136 -44z m4992 -25 c70 -309 91
-685 55 -986 -11 -94 -40 -268 -44 -274 -2 -1 -55 22 -117 52 -281 138 -555
196 -863 184 -273 -11 -499 -68 -733 -186 l-83 -42 60 89 c314 468 787 861
1305 1087 107 47 374 144 398 145 3 0 13 -31 22 -69z m-2060 -523 c-4 -6 -42
-57 -84 -112 -146 -192 -256 -369 -366 -589 l-66 -130 -52 109 c-100 207 -253
452 -393 632 -40 51 -73 95 -73 97 0 3 234 5 521 5 399 0 518 -3 513 -12z
m-2069 -1148 c724 -82 1191 -798 969 -1485 -177 -544 -736 -876 -1300 -770
-427 81 -774 408 -892 843 -23 88 -26 114 -26 277 0 163 3 189 26 277 53 196
145 362 280 504 172 182 408 309 638 343 41 6 86 13 100 15 50 7 117 6 205 -4z
m3340 0 c481 -55 870 -391 992 -858 37 -143 43 -349 14 -490 -52 -251 -156
-439 -338 -613 -97 -93 -177 -148 -297 -205 -427 -201 -915 -125 -1262 199
-279 260 -411 647 -348 1018 87 503 495 889 1004 948 106 12 134 12 235 1z
m-1775 -1793 c0 -24 108 -232 167 -322 232 -352 590 -618 985 -732 54 -15 98
-30 98 -33 0 -3 -39 -35 -87 -70 -467 -345 -867 -823 -1124 -1342 l-53 -106
-58 120 c-243 502 -635 974 -1095 1316 -102 76 -117 92 -88 92 25 0 205 61
290 98 316 138 592 373 785 668 54 82 160 289 160 311 0 7 5 13 10 13 6 0 10
-6 10 -13z m-2439 -1228 c474 -155 885 -412 1240 -775 516 -530 803 -1183 849
-1936 13 -208 13 -838 1 -838 -22 0 -256 72 -371 114 -559 203 -952 475 -1281
886 -531 664 -757 1518 -619 2337 19 109 49 253 54 253 1 0 58 -18 127 -41z
m5014 -80 c183 -868 -33 -1768 -594 -2469 -321 -402 -681 -655 -1226 -862
-117 -44 -420 -138 -446 -138 -8 0 -9 146 -6 468 4 418 6 482 26 607 104 660
385 1224 845 1693 297 304 595 511 966 675 144 63 395 150 408 141 1 -1 14
-53 27 -115z"/>
<path d="M3111 6624 c-77 -21 -141 -58 -199 -117 -217 -221 -152 -582 127
-716 74 -35 80 -36 191 -36 108 0 119 2 182 32 236 111 328 374 213 609 -91
187 -308 283 -514 228z"/>
<path d="M6450 6624 c-117 -32 -221 -118 -275 -228 -114 -234 -22 -498 213
-609 63 -30 74 -32 182 -32 111 0 117 1 191 36 279 134 344 495 127 716 -113
115 -280 159 -438 117z"/>
</g>
</svg>
